<?xml version="1.0" standalone="no"?>
<!DOCTYPE svg PUBLIC "-//W3C//DTD SVG 20010904//EN"
 "http://www.w3.org/TR/2001/REC-SVG-20010904/DTD/svg10.dtd">
<svg version="1.0" xmlns="http://www.w3.org/2000/svg"
 width="221.000000pt" height="223.000000pt" viewBox="0 0 221.000000 223.000000"
 preserveAspectRatio="xMidYMid meet">
<metadata>
Created by potrace 1.10, written by Peter Selinger 2001-2011
</metadata>
<g transform="translate(0.000000,223.000000) scale(0.100000,-0.100000)"
fill="#ffffff" stroke="none">
<path d="M702 2202 c-71 -36 -184 -141 -229 -211 -31 -47 -73 -132 -138 -276
-17 -37 -48 -130 -70 -210 -18 -66 -33 -361 -20 -392 6 -14 10 -10 16 22 4 22
8 63 9 90 0 28 7 73 15 100 11 36 13 40 10 15 -3 -19 -9 -87 -14 -150 -12
-142 -45 -351 -71 -448 -11 -39 -29 -105 -40 -145 -33 -123 -49 -197 -40 -197
4 0 16 35 25 78 17 74 87 306 106 347 32 71 79 191 79 202 0 26 -18 12 -24
-19 -4 -18 -17 -60 -30 -93 l-23 -60 1 42 c0 23 3 40 6 38 3 -2 5 18 5 43 1
70 15 129 26 111 5 -8 6 -30 4 -49 -5 -32 -5 -33 6 -10 8 18 7 39 -2 77 -17
72 -1 293 28 398 3 13 2 17 -5 10 -11 -11 -47 -121 -57 -175 -11 -56 -24 -70
-18 -20 16 132 69 312 114 389 11 18 18 36 15 38 -2 3 -10 -5 -16 -17 -6 -12
-14 -20 -17 -17 -2 3 0 13 6 24 6 10 26 52 45 94 40 91 114 201 163 245 64 57
168 69 231 28 31 -20 38 -18 34 11 -3 23 46 75 93 99 l30 16 -26 0 c-18 0 -41
-14 -70 -42 l-43 -42 -88 -1 -88 -1 51 30 c29 16 68 35 88 42 l36 13 -30 0
c-16 0 -54 -12 -83 -27z"/>
<path d="M1113 2223 c15 -2 25 -8 22 -13 -3 -5 6 -12 20 -16 14 -3 25 -9 25
-14 0 -4 27 -21 61 -39 85 -44 154 -132 127 -159 -8 -8 -4 -22 11 -48 20 -34
21 -66 1 -34 -6 8 -10 10 -10 5 0 -14 80 -98 87 -92 2 3 -1 16 -8 29 -7 12
-12 27 -11 32 2 5 -5 6 -14 2 -12 -5 -15 -2 -10 10 3 8 6 22 6 31 0 11 5 10
26 -6 31 -24 104 -115 104 -129 0 -6 3 -12 8 -14 10 -5 50 -96 62 -147 10 -36
9 -46 -4 -59 -13 -13 -16 -11 -30 19 -8 19 -15 28 -15 21 -1 -7 5 -28 13 -47
8 -18 20 -69 26 -112 7 -43 16 -85 21 -93 7 -11 8 -9 4 8 -4 12 -6 55 -6 94 0
53 -3 69 -10 58 -9 -12 -10 -12 -5 3 3 10 6 24 6 30 0 6 8 3 18 -6 15 -16 17
-41 17 -231 0 -160 3 -217 13 -229 13 -15 11 -33 -14 -118 -5 -19 -81 -75 -90
-67 -3 3 -6 15 -7 27 -1 21 -16 30 -18 11 -1 -5 -2 -15 -3 -22 -2 -20 -26 -21
-26 0 0 27 32 52 67 52 38 0 59 24 66 76 5 47 -8 82 -18 49 -4 -11 -11 -28
-16 -38 -6 -11 -6 -17 2 -17 15 0 7 -43 -10 -48 -10 -3 -12 1 -8 14 6 17 6 17
-5 3 -11 -13 -13 4 -14 95 0 99 -4 122 -33 206 -34 97 -125 295 -141 305 -5 3
-20 29 -34 58 -55 117 -215 305 -283 333 -45 19 -103 17 -139 -5 -39 -24 -77
-84 -69 -110 4 -12 0 -21 -11 -25 -14 -6 -16 -1 -11 34 6 50 47 106 94 128
l35 16 -28 8 c-17 4 -33 3 -39 -3 -7 -7 -4 -8 10 -3 18 7 19 6 6 -10 -8 -9
-20 -15 -28 -12 -8 3 -12 2 -9 -3 3 -5 -1 -14 -9 -21 -23 -19 -19 6 10 65 29
60 55 91 81 98 14 3 12 5 -8 6 -17 1 -33 -8 -46 -24 -11 -14 -26 -24 -33 -23
-8 2 -20 -12 -28 -29 -14 -31 -31 -44 -31 -24 0 19 -84 43 -127 36 -59 -9 -62
-21 -4 -17 49 4 121 -19 121 -37 0 -7 -8 -7 -26 -1 -14 6 -35 9 -47 9 -16 -1
-18 -3 -5 -6 9 -2 15 -10 12 -17 -3 -8 10 -17 34 -24 21 -7 47 -21 57 -32 16
-18 17 -20 1 -26 -10 -4 -15 -13 -11 -22 5 -12 3 -13 -10 -2 -12 10 -13 15 -4
21 19 11 -24 29 -68 28 l-38 -2 40 -7 c43 -7 34 -15 -28 -24 -20 -2 -59 -19
-85 -37 -43 -29 -45 -29 -23 -5 14 14 19 26 13 26 -6 0 -14 -4 -17 -10 -3 -5
-14 -10 -23 -10 -22 -1 -59 -33 -101 -88 -19 -24 -35 -41 -37 -39 -3 2 8 25
22 51 18 33 25 56 21 75 -4 17 0 37 10 50 15 22 12 38 -5 27 -14 -9 -54 -96
-49 -109 2 -6 -4 -19 -12 -29 -26 -27 -53 -78 -42 -78 5 0 12 8 15 18 4 9 15
28 27 42 l20 25 -14 -36 c-11 -27 -12 -39 -3 -51 10 -14 20 -9 76 42 51 47 67
57 81 49 22 -11 39 -12 20 0 -11 7 -5 15 25 33 61 38 98 48 139 37 40 -11 55
-34 35 -52 -8 -8 -11 -8 -7 -1 9 17 -88 10 -110 -7 -10 -8 -35 -30 -56 -49
-37 -34 -37 -35 -15 -41 24 -5 53 14 44 30 -8 12 3 41 16 41 5 0 6 -4 3 -10
-12 -19 6 -32 23 -17 15 12 61 21 162 31 14 2 31 4 37 4 9 2 10 9 4 25 -8 21
-10 29 -12 45 0 4 -5 -4 -11 -18 -6 -15 -12 -20 -15 -12 -7 19 16 42 35 35 15
-6 15 -4 4 9 -11 13 -11 18 0 25 50 31 87 41 53 13 -8 -7 -15 -19 -15 -26 0
-8 -4 -14 -9 -14 -5 0 -12 -8 -16 -17 -4 -12 3 -9 22 9 31 30 103 64 103 48 0
-5 6 -7 14 -4 8 3 17 1 20 -5 3 -5 -10 -15 -29 -21 -20 -6 -32 -16 -29 -22 4
-6 9 -6 13 -1 3 5 25 10 48 12 36 2 42 0 37 -13 -4 -11 0 -16 14 -16 12 0 23
-3 25 -7 3 -5 -28 -7 -69 -6 -41 1 -84 -2 -96 -7 -20 -8 -18 -9 14 -9 20 -1
38 -7 41 -13 3 -10 9 -10 26 0 46 27 148 1 134 -35 -4 -10 -2 -14 4 -10 12 8
39 -20 29 -30 -3 -3 -6 -1 -6 5 0 7 -5 12 -11 12 -8 0 -8 -4 1 -14 6 -8 17
-13 23 -10 7 2 20 -11 31 -28 48 -86 76 -142 76 -157 0 -13 2 -13 9 -2 9 14
16 1 85 -152 14 -32 26 -65 26 -74 0 -9 8 -25 17 -36 12 -13 17 -34 17 -66 -1
-30 1 -39 6 -26 11 30 32 -106 28 -185 -3 -58 -5 -62 -15 -40 -8 19 -12 21
-16 10 -89 -261 -107 -286 -324 -458 -80 -63 -184 -88 -244 -57 -82 42 -228
181 -289 277 -36 56 -53 98 -85 223 -24 90 -53 258 -60 340 l-6 80 51 23 c29
12 63 22 77 22 25 0 137 -45 235 -94 l47 -23 -14 26 c-15 29 -30 43 -100 91
-40 28 -59 34 -109 36 -64 2 -129 -18 -155 -49 -24 -29 -29 -9 -16 60 7 38 11
70 9 72 -5 6 -24 -48 -35 -99 -21 -103 -27 -149 -27 -230 0 -72 1 -81 11 -57
24 59 45 11 22 -53 -19 -55 -19 -54 10 -86 25 -27 62 -130 51 -141 -3 -3 -13
2 -22 12 -15 14 -15 18 -3 26 9 6 10 9 2 9 -7 0 -16 -7 -21 -16 -7 -12 -15 7
-30 72 -12 49 -23 98 -26 109 -3 11 -3 -7 0 -39 3 -33 10 -70 15 -83 6 -16 5
-22 -1 -18 -37 23 -47 291 -17 425 23 101 79 244 88 228 10 -15 9 -16 49 50
18 29 29 56 25 60 -3 4 -12 -1 -19 -10 -7 -10 -16 -15 -19 -11 -4 3 -14 0 -22
-7 -19 -15 -75 -125 -75 -146 0 -8 -4 -14 -10 -14 -5 0 -7 -7 -4 -15 4 -8 1
-15 -5 -15 -6 0 -11 -13 -11 -30 0 -16 -4 -30 -9 -30 -38 0 -48 -322 -12 -424
24 -69 11 -72 -26 -8 -27 45 -28 52 -28 182 1 74 4 155 7 180 l7 45 -16 -35
c-24 -55 -29 -251 -8 -320 22 -70 22 -106 1 -128 -9 -10 -13 -21 -10 -24 3 -4
-2 -18 -12 -33 -9 -14 -18 -36 -19 -49 -5 -38 -16 -66 -26 -66 -6 0 -8 -4 -5
-9 6 -9 -9 -45 -45 -111 -10 -19 -19 -49 -19 -67 0 -17 -14 -71 -30 -120 -17
-48 -34 -104 -39 -123 -20 -80 -102 -354 -108 -359 -3 -3 -3 7 2 24 4 17 9 39
11 50 17 93 48 226 60 255 7 19 30 89 50 155 20 66 39 127 42 135 3 10 2 12
-5 5 -6 -5 -25 -57 -43 -115 -38 -124 -61 -190 -67 -190 -3 0 -2 15 2 32 5 24
3 29 -4 18 -6 -8 -13 -35 -17 -60 -3 -25 -19 -97 -35 -160 -16 -63 -29 -123
-29 -132 0 -9 -10 -18 -22 -20 -13 -2 37 -5 111 -6 100 -2 137 1 143 10 5 8 8
9 8 2 0 -14 48 -6 75 12 25 18 35 18 35 -1 0 -17 25 -20 35 -5 3 6 2 10 -4 10
-16 0 -61 98 -54 117 4 10 2 14 -4 10 -22 -14 -22 36 0 67 104 149 121 160
132 82 5 -28 12 -43 22 -43 11 0 14 9 11 34 -2 19 1 33 7 33 5 0 3 4 -5 9 -8
6 -18 7 -23 4 -5 -3 -8 0 -5 8 2 7 27 20 54 28 27 9 51 18 54 22 3 4 18 11 33
14 15 4 27 10 27 14 0 10 -29 6 -65 -9 -16 -7 -48 -16 -70 -21 -22 -4 -49 -11
-59 -15 -17 -7 -18 -4 -12 27 14 67 23 245 15 299 -5 30 -11 77 -15 103 -4 27
-13 51 -19 54 -7 2 -11 12 -8 23 3 10 1 20 -4 23 -4 3 -8 -57 -8 -134 0 -76 3
-139 8 -139 4 0 7 6 7 13 0 6 5 4 11 -6 14 -24 -7 -278 -24 -292 -7 -5 -16
-18 -20 -29 -4 -10 -25 -44 -47 -76 l-41 -57 24 -65 24 -66 -28 -16 c-43 -25
-62 -21 -55 11 24 114 71 577 68 668 -2 46 6 86 35 174 36 109 38 112 54 92 9
-11 18 -19 20 -17 2 2 4 -20 5 -49 0 -30 5 -60 11 -67 14 -17 41 -195 49 -319
9 -153 25 -144 20 11 -5 141 -8 165 -18 176 -8 8 1 34 20 56 8 10 15 37 16 60
1 25 6 42 14 44 7 1 8 0 3 -2 -5 -3 -6 -15 -3 -26 5 -21 6 -21 13 -2 6 16 8
15 8 -8 1 -16 6 -28 12 -28 5 0 8 -4 5 -9 -3 -4 1 -17 9 -27 8 -10 15 -27 15
-37 0 -10 4 -15 10 -12 6 3 10 1 10 -5 0 -6 4 -9 9 -6 11 7 24 -55 14 -63 -12
-9 -12 -71 0 -71 5 0 7 14 5 30 -3 17 -1 30 4 30 4 0 8 -13 8 -29 0 -16 3 -37
7 -47 4 -12 3 -15 -5 -10 -8 5 -12 -1 -12 -18 0 -16 6 -26 15 -26 8 0 15 -9
15 -19 0 -11 5 -23 10 -26 18 -11 11 -27 -10 -22 -13 3 -20 0 -20 -9 0 -13 12
-18 33 -15 4 0 7 -18 7 -41 0 -28 3 -38 9 -29 6 9 10 2 13 -22 3 -29 1 -34
-12 -27 -19 10 -60 -5 -60 -22 0 -21 -38 -48 -57 -42 -15 5 -16 4 -3 -5 13
-10 13 -12 0 -21 -8 -5 -24 -9 -35 -8 -17 1 -17 1 3 5 12 2 20 8 17 13 -3 4
-15 6 -27 2 -14 -3 -19 -2 -14 6 4 7 2 12 -4 12 -7 0 -10 -6 -7 -14 3 -8 -1
-17 -9 -20 -8 -3 -14 -12 -14 -21 0 -8 -6 -15 -12 -15 -9 0 -8 -4 2 -10 12 -8
12 -10 -5 -10 -13 0 -16 -3 -8 -8 7 -4 10 -17 7 -29 -7 -27 -34 -19 -35 11 -1
18 -2 18 -6 3 -4 -18 -6 -17 -29 4 -23 21 -35 67 -15 54 5 -3 12 5 14 17 4 20
4 19 6 -4 0 -16 6 -28 12 -28 6 0 8 7 5 16 -3 9 -6 26 -6 39 0 14 -7 25 -20
28 -27 7 -41 -14 -34 -52 4 -20 3 -31 -5 -31 -6 0 -11 9 -11 19 0 29 -14 33
-29 9 -7 -11 -8 -17 -2 -13 6 3 11 -1 11 -9 0 -9 5 -16 11 -16 5 0 7 -5 3 -12
-4 -6 -3 -8 3 -5 6 4 23 -9 37 -28 15 -19 34 -35 42 -35 7 0 14 -4 14 -10 0
-5 9 -10 20 -10 11 0 35 -9 54 -20 30 -16 138 -50 161 -50 21 0 -21 29 -49 34
-19 4 -40 14 -47 23 -12 14 -11 18 5 27 49 28 103 75 121 104 11 17 23 31 28
32 4 0 7 -22 7 -50 0 -31 4 -50 11 -50 9 0 10 25 5 90 -4 49 -5 90 -2 90 3 0
21 -28 40 -63 20 -34 36 -58 36 -53 0 5 7 3 15 -4 8 -7 12 -16 9 -21 -3 -5 2
-6 11 -3 11 5 18 0 22 -14 5 -20 33 -40 33 -24 0 12 -58 72 -69 72 -6 0 -11 6
-11 14 0 8 -21 38 -47 67 -47 51 -49 55 -95 233 -25 99 -44 183 -41 186 8 8
46 -51 49 -76 3 -25 6 -29 97 -125 78 -84 218 -182 234 -165 8 8 -17 36 -32
36 -7 0 -12 8 -10 17 1 10 0 12 -2 6 -3 -7 -8 -13 -13 -13 -12 0 -32 28 -23
32 4 3 2 3 -5 1 -7 -1 -24 8 -37 21 -13 13 -26 21 -29 18 -3 -3 -6 2 -6 11 0
9 -7 17 -15 17 -8 0 -15 5 -15 10 0 6 -7 10 -15 10 -9 0 -12 6 -8 17 5 12 2
15 -10 10 -11 -4 -17 -1 -17 9 0 8 -5 12 -10 9 -6 -3 -10 -2 -10 4 0 12 20 26
20 14 0 -4 18 -19 40 -32 21 -14 36 -29 33 -34 -3 -6 -1 -7 4 -4 6 4 24 0 40
-8 43 -21 163 1 193 36 3 3 32 23 65 44 32 20 93 71 134 111 40 41 80 74 87
74 7 0 18 16 24 35 6 19 15 35 19 35 4 0 11 14 16 32 6 17 18 32 27 34 22 3
38 -94 17 -107 -17 -10 -29 7 -29 41 0 19 -3 21 -9 10 -5 -8 -5 -35 -1 -60 4
-25 8 -40 9 -33 0 7 13 18 29 25 24 12 27 18 27 67 0 53 18 82 28 44 4 -16 5
-16 6 2 0 11 16 32 35 47 l34 27 0 -62 c1 -34 3 -89 6 -122 3 -33 10 -141 15
-240 6 -99 12 -193 15 -210 2 -16 1 -20 -1 -9 -6 31 -57 74 -138 116 -38 20
-69 41 -68 47 2 6 -4 8 -12 5 -32 -13 -49 12 -51 73 -1 37 1 51 6 38 5 -12 8
9 8 56 -1 86 -9 112 -30 91 -10 -10 -13 -62 -12 -215 1 -234 14 -303 67 -364
19 -21 16 -43 -5 -43 -6 0 -27 -15 -47 -33 -27 -25 -55 -37 -102 -47 -48 -11
-57 -15 -36 -18 27 -3 103 9 141 24 15 6 17 4 11 -6 -5 -9 -4 -11 4 -6 6 4 9
12 6 17 -4 5 4 14 17 19 13 5 30 14 38 18 8 5 28 16 45 25 20 10 32 26 36 46
4 19 3 28 -3 25 -6 -4 -8 6 -3 27 4 25 3 30 -4 19 -9 -13 -11 -13 -11 3 0 10
-8 17 -21 17 -13 0 -18 4 -13 12 4 7 3 8 -5 4 -8 -6 -5 -15 14 -31 18 -18 25
-34 25 -63 0 -35 -4 -41 -30 -52 -17 -7 -33 -11 -35 -8 -2 2 8 21 22 41 22 31
24 40 13 50 -10 10 -12 9 -7 -5 3 -10 2 -20 -3 -23 -6 -4 -10 2 -11 12 0 11
-3 13 -6 5 -4 -10 -8 -9 -18 5 -11 14 -10 19 4 29 14 11 14 15 2 26 -10 9 -12
9 -7 1 5 -8 1 -13 -9 -13 -9 0 -15 6 -12 13 2 6 -1 23 -7 37 -7 14 -12 37 -11
52 0 15 -2 25 -5 23 -3 -2 -7 21 -8 51 -1 30 0 54 3 54 5 0 179 -85 214 -105
15 -8 25 -24 27 -42 1 -15 5 -45 8 -65 3 -21 1 -40 -3 -43 -5 -3 -9 -21 -9
-41 0 -20 -4 -39 -9 -43 -5 -3 -12 -14 -16 -24 -5 -12 -1 -17 13 -17 11 0 37
-16 59 -35 21 -19 45 -35 54 -35 17 0 31 67 47 220 10 100 18 911 11 1135 -7
236 -55 451 -128 574 -74 124 -289 301 -366 301 -28 0 -23 -4 38 -34 120 -57
297 -233 348 -346 52 -116 90 -365 86 -575 -1 -77 1 -174 5 -215 4 -41 6 -104
4 -140 -1 -36 -1 -98 0 -138 2 -85 -12 -88 -23 -5 -4 32 -10 52 -12 46 -3 -7
3 -70 13 -140 14 -104 16 -166 10 -328 -9 -272 -23 -324 -26 -95 -2 192 -8
301 -16 309 -3 3 -4 -114 -4 -259 1 -146 1 -269 0 -274 0 -4 -13 6 -29 23 -19
20 -35 29 -45 25 -9 -3 -16 -1 -16 5 0 6 7 11 15 11 12 0 14 7 9 28 -4 18 -3
23 4 13 22 -31 36 247 22 451 -9 134 -18 210 -47 396 -3 18 0 39 7 47 15 18 5
64 -18 82 -11 8 -12 12 -4 13 9 0 12 19 10 69 -2 39 1 67 6 64 5 -4 7 20 4 55
-3 33 -2 64 3 69 6 6 2 44 -10 99 -11 49 -23 110 -26 137 -3 26 -11 47 -16 47
-6 0 -7 5 -4 10 3 6 2 10 -2 10 -5 0 -24 30 -43 66 -35 66 -61 100 -132 175
-21 22 -38 44 -38 49 0 6 -4 10 -10 10 -5 0 -10 6 -10 13 0 8 -9 22 -19 31
-19 18 -35 56 -22 56 3 0 29 -15 56 -34 139 -96 236 -229 227 -313 -4 -44 6
-54 36 -34 11 7 11 15 -2 46 -27 65 -11 48 22 -23 70 -148 92 -308 67 -481
-17 -118 -17 -120 5 -203 12 -45 24 -94 26 -107 3 -13 9 -40 14 -60 18 -71 -1
70 -21 160 -14 61 -17 93 -10 110 5 14 7 47 5 75 -3 42 -2 45 6 19 8 -27 9
-26 6 13 -2 23 -1 40 2 38 14 -8 -7 202 -27 284 -24 94 -72 204 -123 277 -77
113 -304 305 -404 343 -30 11 -78 22 -107 24 -28 2 -40 2 -24 -1z m-238 -170
c-10 -26 -20 -42 -23 -35 -2 7 0 18 6 25 5 7 12 25 16 41 4 15 10 26 13 22 3
-3 -2 -27 -12 -53z m-292 -361 c-3 -12 -9 -22 -14 -22 -5 0 -3 11 3 25 13 30
20 28 11 -3z m207 -229 c27 -15 48 -28 46 -30 -5 -5 -106 31 -132 46 -17 9
-16 10 9 11 15 0 50 -12 77 -27z m-263 -340 c-4 -3 -2 -12 4 -20 8 -9 8 -13 1
-13 -6 0 -14 5 -17 10 -6 10 2 30 12 30 4 0 3 -3 0 -7z m19 -259 l-7 -26 -18
21 c-10 12 -23 21 -30 21 -14 0 -15 17 0 22 7 2 7 12 0 31 -11 27 -10 27 25
-7 30 -29 35 -40 30 -62z m4 -48 c0 -8 -4 -17 -8 -20 -13 -8 -35 11 -28 23 10
16 36 14 36 -3z m-214 -143 c-13 -165 -32 -344 -57 -513 -10 -74 -19 -138 -19
-142 0 -5 -36 -8 -80 -8 -52 0 -80 4 -80 11 0 6 23 84 51 172 28 89 73 234
100 322 60 190 79 245 86 245 3 0 3 -39 -1 -87z m463 -77 c24 -24 29 -36 20
-41 -7 -5 -10 -4 -6 1 3 5 -8 20 -24 33 -16 13 -29 27 -29 32 0 14 4 11 39
-25z m-59 -306 c0 -5 9 -10 20 -10 18 0 18 -1 2 -30 -9 -16 -20 -30 -24 -30
-5 0 -8 -6 -8 -14 0 -8 -10 -22 -22 -31 -13 -8 -21 -19 -18 -23 6 -9 -80 -53
-91 -46 -5 3 -9 10 -9 15 0 6 4 7 10 4 6 -3 7 1 4 9 -4 10 -1 16 7 16 18 0
-10 20 -28 20 -19 0 -16 -60 4 -82 20 -22 12 -33 -15 -19 -25 13 -33 46 -24
91 7 33 9 34 49 32 56 -4 78 10 102 63 18 41 41 60 41 35z"/>
<path d="M1854 2223 c219 -2 324 -7 333 -15 15 -12 28 -5 18 11 -4 8 -111 10
-338 9 l-332 -3 319 -2z"/>
<path d="M1410 2144 c0 -10 28 -33 33 -27 3 3 0 12 -8 19 -14 15 -25 18 -25 8z"/>
<path d="M960 2070 c-8 -5 -11 -12 -7 -17 5 -4 11 -2 15 4 4 6 18 13 32 16
l25 4 -25 1 c-14 1 -32 -2 -40 -8z"/>
<path d="M1191 2008 c19 -18 48 -44 64 -58 52 -44 171 -193 209 -261 45 -81
96 -223 96 -266 0 -17 4 -33 9 -35 11 -3 29 -133 26 -190 -1 -21 2 -38 7 -38
4 0 8 39 8 88 0 86 -17 184 -44 252 -7 19 -22 62 -32 95 -10 33 -21 62 -24 65
-4 3 -23 32 -43 66 -20 33 -45 68 -55 77 -11 10 -28 38 -38 62 -10 26 -25 45
-34 45 -8 0 -37 21 -63 45 -27 26 -53 43 -59 39 -6 -4 -8 -3 -5 3 4 6 -4 18
-18 27 -40 26 -42 18 -4 -16z"/>
<path d="M1232 1900 c13 -16 28 -27 34 -25 16 5 27 -5 62 -54 18 -24 32 -39
32 -33 0 29 -71 109 -110 125 l-40 16 22 -29z"/>
<path d="M958 1888 c-30 -30 -15 -59 19 -39 17 10 17 10 0 11 -15 0 -16 3 -7
21 15 27 9 30 -12 7z"/>
<path d="M544 1802 c-54 -63 -82 -104 -100 -147 -19 -47 0 -36 22 13 10 20 36
60 59 87 37 44 71 96 63 95 -2 -1 -21 -22 -44 -48z"/>
<path d="M758 1777 c-13 -13 -30 -22 -38 -19 -13 3 -13 2 0 -7 12 -9 12 -11
-3 -17 -9 -3 -17 -12 -17 -20 0 -8 -4 -14 -10 -14 -6 0 -9 -4 -7 -9 1 -5 -16
-25 -38 -44 -22 -19 -37 -38 -34 -41 8 -8 99 79 99 94 0 14 66 80 80 80 6 0
10 5 10 10 0 17 -18 11 -42 -13z"/>
<path d="M1370 1774 c0 -6 7 -19 15 -30 8 -10 14 -14 14 -9 0 6 -6 19 -14 29
-8 11 -15 15 -15 10z"/>
<path d="M1738 1494 c-1 -16 -2 -54 -3 -84 -3 -199 -6 -241 -15 -235 -6 4 -10
-11 -8 -39 0 -25 4 -46 8 -46 4 0 16 -35 25 -77 28 -121 44 -179 44 -162 1 24
-38 210 -51 242 -8 20 -7 47 2 105 12 76 17 309 6 320 -3 3 -7 -8 -8 -24z"/>
<path d="M1325 1496 c-33 -7 -74 -20 -92 -29 -41 -22 -109 -84 -101 -92 6 -6
179 53 228 78 14 8 35 12 48 12 27 -3 29 20 3 35 -11 5 -21 10 -23 9 -2 -1
-30 -6 -63 -13z m20 -25 c-14 -13 -136 -53 -143 -46 -6 6 -8 5 48 33 45 22
113 31 95 13z"/>
<path d="M1531 1435 c0 -11 4 -29 9 -40 9 -20 9 -20 9 0 0 11 -4 29 -9 40 -9
20 -9 20 -9 0z"/>
<path d="M630 1413 c-37 -6 -80 -24 -80 -34 0 -13 12 -11 53 6 42 17 105 19
127 4 11 -8 7 -9 -18 -5 -35 6 -66 -5 -124 -43 -40 -25 -49 -41 -23 -41 15 0
23 -21 29 -78 2 -24 10 -37 31 -48 29 -15 118 -18 193 -6 46 7 61 25 25 30
-19 3 -20 7 -12 34 4 17 6 34 4 39 -10 15 13 19 25 4 13 -16 30 -20 30 -7 0
15 -75 85 -105 98 -16 7 -24 13 -17 14 6 0 12 4 12 10 0 13 -105 29 -150 23z
m108 -55 c-2 -6 10 -12 27 -12 36 -1 54 -32 50 -88 -3 -48 -20 -68 -59 -68
-39 1 -63 18 -71 53 -4 15 -11 30 -16 33 -14 8 -10 -28 6 -56 20 -35 19 -38
-10 -32 -30 5 -55 47 -55 90 0 22 9 36 34 56 40 30 51 33 42 10 -4 -12 0 -15
17 -12 12 2 23 9 23 16 2 18 4 22 9 22 3 0 4 -5 3 -12z"/>
<path d="M720 1298 c-8 -16 -8 -32 -1 -51 12 -32 21 -33 51 -9 17 13 20 24 15
45 -4 15 -11 27 -15 27 -5 0 -15 3 -24 6 -10 4 -19 -2 -26 -18z"/>
<path d="M1322 1400 c-29 -4 -56 -11 -60 -15 -4 -4 5 -5 21 -1 16 4 27 2 27
-4 0 -9 -15 -14 -34 -11 -4 1 -15 -4 -24 -11 -13 -11 -15 -10 -9 5 3 9 4 17 0
17 -13 0 -93 -44 -93 -52 0 -15 29 -8 49 13 10 11 21 17 24 12 3 -5 -10 -21
-29 -36 -34 -28 -44 -47 -23 -47 6 0 29 16 52 35 22 19 48 35 56 34 11 0 12
-2 3 -6 -6 -2 -10 -9 -7 -13 8 -14 35 0 35 18 0 8 3 12 7 9 3 -4 12 -2 20 4
10 9 13 7 13 -10 0 -12 4 -20 9 -17 5 3 12 -1 15 -10 7 -20 -2 -33 -12 -18
-10 15 -29 11 -54 -11 -13 -10 -24 -18 -25 -17 -2 1 -6 2 -10 2 -5 0 -1 -6 8
-13 8 -7 18 -20 22 -29 3 -10 15 -18 25 -18 22 0 71 52 54 58 -7 2 -10 8 -6
13 12 19 23 7 27 -28 l4 -38 1 40 c1 23 -5 50 -14 63 -12 18 -13 22 -1 22 40
0 61 -78 35 -135 -13 -28 -41 -36 -31 -7 6 16 5 16 -13 0 -33 -29 -70 -32 -93
-9 -12 12 -21 27 -22 34 -3 46 -18 74 -20 36 -2 -34 -2 -32 6 -58 7 -22 5 -23
-24 -16 -20 4 -31 3 -31 -4 0 -29 139 -49 205 -31 41 11 45 15 45 44 1 32 22
81 37 81 10 0 6 13 -13 42 -18 28 -63 52 -117 63 l-42 8 38 1 c21 1 54 -6 74
-14 42 -18 43 -18 43 -4 0 11 -62 40 -82 38 -7 -1 -37 -5 -66 -9z"/>
<path d="M849 1349 c23 -16 48 -28 54 -26 13 4 -65 57 -84 57 -7 0 7 -14 30
-31z"/>
<path d="M360 1085 c0 -8 -5 -15 -10 -15 -7 0 -7 -6 0 -20 13 -24 30 -26 30
-5 0 8 -4 15 -9 15 -5 0 -7 9 -4 20 3 11 3 20 -1 20 -3 0 -6 -7 -6 -15z"/>
<path d="M1072 1055 c1 -14 6 -25 11 -25 5 0 4 -7 -3 -15 -6 -8 -9 -19 -5 -25
4 -6 1 -17 -5 -25 -10 -12 -10 -15 0 -15 7 0 19 8 26 18 16 20 19 82 4 82 -5
0 -10 7 -10 15 0 8 -4 15 -10 15 -5 0 -9 -11 -8 -25z"/>
<path d="M968 1000 c-7 -16 -16 -30 -19 -30 -13 0 -19 -32 -9 -51 10 -18 69
-49 94 -49 8 0 11 11 8 33 -5 31 -4 32 15 15 21 -20 43 -24 43 -9 0 17 -24 26
-70 26 l-45 0 3 48 c3 55 -1 59 -20 17z"/>
<path d="M1701 1013 c-1 -13 6 -65 14 -115 9 -51 18 -108 21 -127 3 -18 7 -31
9 -29 2 2 -3 53 -11 113 -16 123 -31 194 -33 158z"/>
<path d="M934 800 c-31 -12 -39 -30 -21 -48 19 -18 194 -27 215 -10 20 17 14
44 -13 56 -30 14 -150 15 -181 2z m152 -21 c9 -15 0 -20 -41 -24 -40 -4 -98
12 -90 25 7 12 123 11 131 -1z"/>
<path d="M590 704 c0 -14 4 -23 9 -20 5 3 7 15 4 26 -7 28 -13 25 -13 -6z"/>
<path d="M1548 688 c5 -71 10 -77 11 -15 0 31 -2 57 -7 57 -4 0 -6 -19 -4 -42z"/>
<path d="M1512 680 c0 -19 2 -27 5 -17 2 9 2 25 0 35 -3 9 -5 1 -5 -18z"/>
<path d="M561 602 c1 -51 5 -94 10 -97 8 -5 1 176 -7 184 -2 3 -4 -37 -3 -87z"/>
<path d="M982 678 c3 -7 23 -14 47 -16 32 -2 42 0 39 10 -3 7 -23 14 -47 16
-32 2 -42 0 -39 -10z"/>
<path d="M384 605 c2 -33 9 -71 14 -85 9 -24 10 -23 16 15 13 75 17 86 26 80
6 -3 10 1 10 10 0 12 -4 14 -19 6 -15 -8 -22 -6 -35 12 -15 21 -16 19 -12 -38z"/>
<path d="M1600 560 c0 -30 -3 -72 -6 -92 -4 -21 -2 -38 3 -38 5 0 9 8 9 18 1
9 4 44 7 77 3 33 2 67 -3 75 -7 10 -10 -2 -10 -40z"/>
<path d="M1192 351 c-10 -6 -10 -10 3 -21 13 -11 15 -9 15 9 0 24 0 24 -18 12z"/>
<path d="M1107 343 c-15 -14 -5 -23 26 -22 17 1 24 3 15 6 -10 2 -18 9 -18 14
0 10 -14 12 -23 2z"/>
<path d="M1631 179 c0 -9 -8 -22 -16 -29 -8 -7 -15 -17 -15 -23 0 -6 9 -2 21
10 12 12 19 28 16 39 -4 15 -5 15 -6 3z"/>
<path d="M773 96 c3 -8 1 -17 -6 -20 -7 -3 -3 -5 8 -3 25 3 34 37 10 37 -11 0
-15 -5 -12 -14z"/>
<path d="M2186 14 c-17 -12 -17 -14 -4 -14 9 0 20 5 23 11 11 17 2 18 -19 3z"/>
<path d="M468 3 c18 -2 45 -2 60 0 15 2 0 4 -33 4 -33 0 -45 -2 -27 -4z"/>
<path d="M793 3 c15 -2 37 -2 50 0 12 2 0 4 -28 4 -27 0 -38 -2 -22 -4z"/>
<path d="M1013 3 c9 -2 25 -2 35 0 9 3 1 5 -18 5 -19 0 -27 -2 -17 -5z"/>
</g>
</svg>
